# xmcd
#
# Track frame offsets: 
#        150
#        18860
#        40367
#        43936
#        52263
#        68942
#        87473
#        104702
#        122119
#        139556
#        159845
#        182837
#        205710
#        227093
#        245093
#        263102
#        278517
#        293982
#        313816
#        334599
#
# Disc length: 4728 seconds
#
# Revision: 0
# Processed by: cddbd v1.5.2PL0 Copyright (c) Steve Scherf et al.
# Submitted via: ExactAudioCopy v0.95b3
#
DISCID=2e127614
DTITLE=Various Artist - Dancefloor FG winter 2008 by Bob Sinclar
DYEAR=2008
DGENRE=House
TTITLE0=Rihanna - Don't Stop The Music (Bob Sinclar Remix)
TTITLE1=Yves Larock feat. Jaba - Rise Up
TTITLE2=Shakedown - At Night (A Capella)
TTITLE3=Nari and Milani pres. Dek 31 - Gnuk!
TTITLE4=R.I.O. - De Janeiro
TTITLE5=Bob Sinclar and Cutee B feat. Gary Pine and Dollar Man - Sound Of 
TTITLE5=Freedom (Rani Remix)
TTITLE6=Laidback Luke - Break Down The House
TTITLE7=Felix Da Housecat vs Diddy - Jack U (Angelo and Ingrosso Remix)
TTITLE8=Dirty South feat. Rudy - Let It Go
TTITLE9=Funkerman - Speed Up
TTITLE10=John Dahlback - Blink (Dim Chris Remix)
TTITLE11=Micha Moor - Space (Klass Club Remix)
TTITLE12=Mondotek - Alive
TTITLE13=Artofdisco feat. Farrell Lennon - Ten Thousand Women (Boris D
TTITLE13=lugosh Remix)
TTITLE14=Public Enemy vs Benny Benassi - Bring The Noise Remix
TTITLE15=Ida Corr vs Fedde Le Grand - Let Me Think About It
TTITLE16=Martin Solveig feat. Jay Sebag - C'est la vie
TTITLE17=David Guetta feat. Tara McDonald - Delirious
TTITLE18=DJ Joe K - Born Slippy
TTITLE19=Bob Sinclar and Steve Edwards - Together
EXTD=
EXTT0=
EXTT1=
EXTT2=
EXTT3=
EXTT4=
EXTT5=
EXTT6=
EXTT7=
EXTT8=
EXTT9=
EXTT10=
EXTT11=
EXTT12=
EXTT13=
EXTT14=
EXTT15=
EXTT16=
EXTT17=
EXTT18=
EXTT19=
PLAYORDER=
